{"title":"Formula.1.2016x17.Japan.Teds.Qualifying.Notebook.SkyF1HD.1080p50","uid":15992614,"size":1336829310,"categoryP":"video","categoryS":"other","magnet":"?xt=urn:btih:1ca68465f79dfe6e5d26002ecb39b0d328d5596d&amp;dn=Formula.1.2016x17.Japan.Teds.Qualifying.Notebook.SkyF1HD.1080p50&amp;tr=udp%3A%2F%2Ftracker.leechers-paradise.org%3A6969&amp;tr=udp%3A%2F%2Fzer0day.ch%3A1337&amp;tr=udp%3A%2F%2Fopen.demonii.com%3A1337&amp;tr=udp%3A%2F%2Ftracker.coppersurfer.tk%3A6969&amp;tr=udp%3A%2F%2Fexodus.desync.com%3A6969","seeders":11,"leechers":4,"uploader":"GaYoonFan","files":1,"time":1476033226,"description":"Formula.1.2016x17.Japan.Teds.Qualifying.Notebook.SkyF1HD.1080p50-smcgill1969:\r\n\r\nTed Kravitz gives his thoughts on qualifying at the 2016 Japanese Grand Prix at Suzuka Circuit.\r\n\r\n Video\r\n ID : 1\r\n Format : AVC\r\n Format/Info : Advanced Video Codec\r\n Format profile :   \r\n Format settings, CABAC : Yes\r\n Format settings, ReFrames : 2 frames\r\n Format settings, GOP : M=3, N=24\r\n Codec ID : avc1\r\n Codec ID/Info : Advanced Video Coding\r\n Duration : 28mn 31s\r\n Duration_FirstFrame : 11ms\r\n Bit rate mode : Variable\r\n Bit rate : 5 987 Kbps\r\n Maximum bit rate : 12.4 Mbps\r\n Width : 1 920 pixels\r\n Height : 1 080 pixels\r\n Original height : 1 088 pixels\r\n Display aspect ratio : 16:9\r\n Original display aspect ratio : 16:9\r\n Frame rate mode : Constant\r\n Frame rate : 50.000 fps\r\n Color space : YUV\r\n Chroma subsampling : 4:2:0\r\n Bit depth : 8 bits\r\n Scan type : Progressive\r\n Bits/(Pixel*Frame) : 0.058\r\n Stream size : 1.19 GiB (96%)\r\n Language : English\r\n Encoded date : UTC 2016-10-08 10:16:27\r\n Tagged date : UTC 2016-10-08 11:00:02\r\n\r\n Audio\r\n ID : 2\r\n Format : AAC\r\n Format/Info : Advanced Audio Codec\r\n Format profile : LC\r\n Codec ID : 40\r\n Duration : 28mn 30s\r\n Bit rate mode : Constant\r\n Bit rate : 256 Kbps\r\n Channel(s) : 2 channels\r\n Channel positions : Front: L R\r\n Sampling rate : 48.0 KHz\r\n Frame rate : 46.875 fps (1024 spf)\r\n Compression mode : Lossy\r\n Stream size : 51.7 MiB (4%)\r\n Language : English\r\n Encoded date : UTC 2016-10-08 10:16:27\r\n Tagged date : UTC 2016-10-08 11:00:02","torrent":{"xt":"urn:btih:1ca68465f79dfe6e5d26002ecb39b0d328d5596d","amp;dn":"Formula.1.2016x17.Japan.Teds.Qualifying.Notebook.SkyF1HD.1080p50","amp;tr":["udp%3A%2F%2Ftracker.leechers-paradise.org%3A6969","udp%3A%2F%2Fzer0day.ch%3A1337","udp%3A%2F%2Fopen.demonii.com%3A1337","udp%3A%2F%2Ftracker.coppersurfer.tk%3A6969","udp%3A%2F%2Fexodus.desync.com%3A6969"],"infoHash":"1ca68465f79dfe6e5d26002ecb39b0d328d5596d","infoHashBuffer":{"type":"Buffer","data":[28,166,132,101,247,157,254,110,93,38,0,46,203,57,176,211,40,213,89,109]},"announce":[],"urlList":[]}}